<svg xmlns="http://www.w3.org/2000/svg" viewBox="0 0 100 100" width="100" height="100">
<!-- Фирменный шестиугольник Data Sapience (скруглённые углы). Извлечён из custGeom шаблона.
     Заливка: одноцветная (#CAE7EF/#4F9AAB/#004158) ИЛИ градиент 001D37 to 2B6478 to C5E2EA для блоба-свечения.
     Контейнер-иконка, фото-ячейки команды, декор-блобы (см. manifest.slides.background_decor). -->
<path d="M 58.499,0.000 L 21.308,9.475 L 17.920,10.791 L 14.941,12.771 L 12.461,15.326 L 10.568,18.367 L 0.569,54.553 L 0.000,59.061 L 0.050,60.184 L 0.988,64.548 L 3.059,68.528 L 29.238,95.052 L 32.858,97.799 L 37.010,99.452 L 41.456,99.948 L 42.586,99.884 L 78.647,90.474 L 82.036,89.157 L 85.014,87.177 L 87.494,84.622 L 89.387,81.581 L 99.386,45.395 L 99.956,40.888 L 99.906,39.765 L 98.968,35.401 L 96.897,31.421 L 70.716,4.895 L 67.098,2.149 L 62.946,0.495 L 58.499,0.000 Z" fill="#CAE7EF"/>
</svg>