<svg xmlns="http://www.w3.org/2000/svg" xmlns:xlink="http://www.w3.org/1999/xlink" viewBox="0 0 99 90.26"><defs><style>.cls-1{fill:#fff;}.cls-2,.cls-3{fill-rule:evenodd;}.cls-3{fill:url(#Безымянный_градиент_21);}.cls-4{mask:url(#mask);}.cls-5{fill:url(#Безымянный_градиент_27);}</style><linearGradient id="Безымянный_градиент_21" x1="20.57" y1="77.62" x2="76.21" y2="15.02" gradientTransform="matrix(1, 0, 0, -1, 0, 91.89)" gradientUnits="userSpaceOnUse"><stop offset="0.11" stop-color="#004158"/><stop offset="0.18" stop-color="#06465d"/><stop offset="0.29" stop-color="#18566b"/><stop offset="0.4" stop-color="#346f82"/><stop offset="0.53" stop-color="#5c92a1"/><stop offset="0.67" stop-color="#8fbeca"/><stop offset="0.68" stop-color="#93c2cd"/><stop offset="1" stop-color="#cae7ef"/></linearGradient><mask id="mask" x="0" y="0" width="99" height="91" maskUnits="userSpaceOnUse"><g id="path-1-outside-1_195159_8050" data-name="path-1-outside-1 195159 8050"><rect class="cls-1" width="99" height="91"/><path class="cls-2" d="M26,5a4,4,0,0,0,4,4h2.5a6,6,0,0,1,6,6h0a6,6,0,0,1-6,6H15a4,4,0,0,0-4,4h0a4,4,0,0,0,4,4h2a6,6,0,0,1,6,6h0a6,6,0,0,1-6,6H5a4,4,0,0,0-4,4H1a4,4,0,0,0,4,4H20a6,6,0,0,1,6,6h0a6,6,0,0,1-6,6H16a4,4,0,0,0-4,4h0a4,4,0,0,0,4,4H49.5a6,6,0,0,1,6,6v.25A5.74,5.74,0,0,1,49.75,81H48a4,4,0,0,0-4,4h0a4,4,0,0,0,4,4H70a4,4,0,0,0,4-4h0a4,4,0,0,0-4-4H67.5a6,6,0,0,1-6-6v-.5A5.5,5.5,0,0,1,67,69H82a4,4,0,0,0,4-4h0a4,4,0,0,0-4-4H79a6,6,0,0,1-6-6h0a6,6,0,0,1,6-6H94a4,4,0,0,0,4-4h0a4,4,0,0,0-4-4H58a4,4,0,0,0-4,4h0a4,4,0,0,0,4,4h3a6,6,0,0,1,6,6h0a6,6,0,0,1-6,6H38a6,6,0,0,1-6-6h0a6,6,0,0,1,6-6h3a4,4,0,0,0,4-4h0a4,4,0,0,0-4-4H35a6,6,0,0,1-6-6h0a6,6,0,0,1,6-6H57a4,4,0,0,0,4-4h0a4,4,0,0,0-4-4H50.5a6,6,0,0,1-6-6h0a6,6,0,0,1,6-6H68a4,4,0,0,0,4-4h0a4,4,0,0,0-4-4H30a4,4,0,0,0-4,4ZM36,85.26a4,4,0,0,1-4,4H28a4,4,0,0,1-4-4h0a4,4,0,0,1,4-4h4a4,4,0,0,1,4,4ZM72,25a4,4,0,0,0,4,4h4a4,4,0,0,0,4-4h0a4,4,0,0,0-4-4H76a4,4,0,0,0-4,4Z"/></g></mask><linearGradient id="Безымянный_градиент_27" x1="20.57" y1="77.62" x2="76.21" y2="15.02" gradientTransform="matrix(1, 0, 0, -1, 0, 91.89)" gradientUnits="userSpaceOnUse"><stop offset="0" stop-color="#004158"/><stop offset="0.06" stop-color="#004158"/><stop offset="0.48" stop-color="#004158"/><stop offset="0.82" stop-color="#367e91"/><stop offset="1" stop-color="#4f9aab"/></linearGradient></defs><g id="Слой_2" data-name="Слой 2"><g id="Слой_1-2" data-name="Слой 1"><path class="cls-3" d="M26,5a4,4,0,0,0,4,4h2.5a6,6,0,0,1,6,6h0a6,6,0,0,1-6,6H15a4,4,0,0,0-4,4h0a4,4,0,0,0,4,4h2a6,6,0,0,1,6,6h0a6,6,0,0,1-6,6H5a4,4,0,0,0-4,4H1a4,4,0,0,0,4,4H20a6,6,0,0,1,6,6h0a6,6,0,0,1-6,6H16a4,4,0,0,0-4,4h0a4,4,0,0,0,4,4H49.5a6,6,0,0,1,6,6v.25A5.74,5.74,0,0,1,49.75,81H48a4,4,0,0,0-4,4h0a4,4,0,0,0,4,4H70a4,4,0,0,0,4-4h0a4,4,0,0,0-4-4H67.5a6,6,0,0,1-6-6v-.5A5.5,5.5,0,0,1,67,69H82a4,4,0,0,0,4-4h0a4,4,0,0,0-4-4H79a6,6,0,0,1-6-6h0a6,6,0,0,1,6-6H94a4,4,0,0,0,4-4h0a4,4,0,0,0-4-4H58a4,4,0,0,0-4,4h0a4,4,0,0,0,4,4h3a6,6,0,0,1,6,6h0a6,6,0,0,1-6,6H38a6,6,0,0,1-6-6h0a6,6,0,0,1,6-6h3a4,4,0,0,0,4-4h0a4,4,0,0,0-4-4H35a6,6,0,0,1-6-6h0a6,6,0,0,1,6-6H57a4,4,0,0,0,4-4h0a4,4,0,0,0-4-4H50.5a6,6,0,0,1-6-6h0a6,6,0,0,1,6-6H68a4,4,0,0,0,4-4h0a4,4,0,0,0-4-4H30a4,4,0,0,0-4,4ZM36,85.26a4,4,0,0,1-4,4H28a4,4,0,0,1-4-4h0a4,4,0,0,1,4-4h4a4,4,0,0,1,4,4ZM72,25a4,4,0,0,0,4,4h4a4,4,0,0,0,4-4h0a4,4,0,0,0-4-4H76a4,4,0,0,0-4,4Z"/><g class="cls-4"><path class="cls-5" d="M73,69v1h0ZM61,61v0ZM5,49v0ZM30,9V9ZM82,69v0ZM32.5,9V9Zm0-1H30v2h2.5ZM15,22H32.5V20H15Zm2,6H15v2h2Zm0,12H5v2H17ZM5,50H20V48H5ZM20,60H16v2h4ZM16,70H49.5V68H16Zm38.5,5v.25h2V75Zm-4.75,5H48v2h1.75ZM48,90H70V88H48ZM70,80H67.5v2H70Zm-7.5-5v-.5h-2V75ZM67,70h6V68H67Zm6,0h9V68H73Zm9-10H79v2h3ZM79,50H94V48H79ZM94,40H58v2H94ZM58,50h3V48H58Zm3,10H38v2H61ZM38,50h3V48H38Zm3-10H35v2h6ZM57,28H35v2H57Zm-6.5-6H57V20H50.5ZM68,8H50.5v2H68ZM30,2H68V0H30ZM28,90.26h4v-2H28Zm4-10H28v2h4ZM80,28H76v2h4Zm-4-6h4V20H76Zm0-2a5,5,0,0,0-5,5h2a3,3,0,0,1,3-3Zm9,5a5,5,0,0,0-5-5v2a3,3,0,0,1,3,3Zm-9,3a3,3,0,0,1-3-3H71a5,5,0,0,0,5,5Zm4,2a5,5,0,0,0,5-5H83a3,3,0,0,1-3,3ZM32,82.26a3,3,0,0,1,3,3h2a5,5,0,0,0-5-5Zm-4,6a3,3,0,0,1-3-3H23a5,5,0,0,0,5,5ZM30,0a5,5,0,0,0-5,5h2a3,3,0,0,1,3-3ZM73,5a5,5,0,0,0-5-5V2a3,3,0,0,1,3,3Zm-5,5a5,5,0,0,0,5-5H71a3,3,0,0,1-3,3ZM45.5,15a5,5,0,0,1,5-5V8a7,7,0,0,0-7,7Zm5,5a5,5,0,0,1-5-5h-2a7,7,0,0,0,7,7ZM62,25a5,5,0,0,0-5-5v2a3,3,0,0,1,3,3Zm-5,5a5,5,0,0,0,5-5H60a3,3,0,0,1-3,3ZM30,35a5,5,0,0,1,5-5V28a7,7,0,0,0-7,7Zm5,5a5,5,0,0,1-5-5H28a7,7,0,0,0,7,7Zm11,5a5,5,0,0,0-5-5v2a3,3,0,0,1,3,3Zm-5,5a5,5,0,0,0,5-5H44a3,3,0,0,1-3,3Zm-8,5a5,5,0,0,1,5-5V48a7,7,0,0,0-7,7Zm5,5a5,5,0,0,1-5-5H31a7,7,0,0,0,7,7Zm28-5a5,5,0,0,1-5,5v2a7,7,0,0,0,7-7Zm-5-5a5,5,0,0,1,5,5h2a7,7,0,0,0-7-7Zm-8-5a5,5,0,0,0,5,5V48a3,3,0,0,1-3-3Zm5-5a5,5,0,0,0-5,5h2a3,3,0,0,1,3-3Zm41,5a5,5,0,0,0-5-5v2a3,3,0,0,1,3,3Zm-5,5a5,5,0,0,0,5-5H97a3,3,0,0,1-3,3ZM74,55a5,5,0,0,1,5-5V48a7,7,0,0,0-7,7Zm5,5a5,5,0,0,1-5-5H72a7,7,0,0,0,7,7ZM62.5,74.5A4.49,4.49,0,0,1,67,70V68a6.5,6.5,0,0,0-6.5,6.5Zm5,5.5a5,5,0,0,1-5-5h-2a7,7,0,0,0,7,7ZM75,85a5,5,0,0,0-5-5v2a3,3,0,0,1,3,3Zm-5,5a5,5,0,0,0,5-5H73a3,3,0,0,1-3,3ZM43,85a5,5,0,0,0,5,5V88a3,3,0,0,1-3-3Zm5-5a5,5,0,0,0-5,5h2a3,3,0,0,1,3-3Zm6.5-4.75A4.75,4.75,0,0,1,49.75,80v2a6.75,6.75,0,0,0,6.75-6.75ZM49.5,70a5,5,0,0,1,5,5h2a7,7,0,0,0-7-7ZM11,65a5,5,0,0,0,5,5V68a3,3,0,0,1-3-3Zm5-5a5,5,0,0,0-5,5h2a3,3,0,0,1,3-3Zm9-5a5,5,0,0,1-5,5v2a7,7,0,0,0,7-7Zm-5-5a5,5,0,0,1,5,5h2a7,7,0,0,0-7-7ZM0,45a5,5,0,0,0,5,5V48a3,3,0,0,1-3-3Zm5-5a5,5,0,0,0-5,5H2a3,3,0,0,1,3-3Zm17-5a5,5,0,0,1-5,5v2a7,7,0,0,0,7-7Zm-5-5a5,5,0,0,1,5,5h2a7,7,0,0,0-7-7Zm-7-5a5,5,0,0,0,5,5V28a3,3,0,0,1-3-3Zm5-5a5,5,0,0,0-5,5h2a3,3,0,0,1,3-3Zm22.5-5a5,5,0,0,1-5,5v2a7,7,0,0,0,7-7ZM87,65a5,5,0,0,0-5-5v2a3,3,0,0,1,3,3ZM25,85.26a3,3,0,0,1,3-3v-2a5,5,0,0,0-5,5ZM30,8a3,3,0,0,1-3-3H25a5,5,0,0,0,5,5ZM82,70a5,5,0,0,0,5-5H85a3,3,0,0,1-3,3ZM32,90.26a5,5,0,0,0,5-5H35a3,3,0,0,1-3,3ZM32.5,10a5,5,0,0,1,5,5h2a7,7,0,0,0-7-7Z"/></g></g></g></svg>