<?xml version="1.0" encoding="UTF-8"?><svg id="Layer_1" xmlns="http://www.w3.org/2000/svg" viewBox="0 0 2773.3 257.18"><defs><style>.cls-1{fill:#0a0b09;}</style></defs><path class="cls-1" d="M36.84,222.97l203.44-86.02v-51.6L36.84,0,0,36.14V186.83l36.84,36.13Zm6.83-173.25l145.11,61.48L43.67,172.67V49.72Z"/><g><path class="cls-1" d="M197.33,220.2c-.8,2.32-1.47,3.22-3.03,4.07-1.56,.9-3.65,1.28-7.01,1.28-5.02,0-8.86-.66-10.7-1.85-2.37-1.52-3.03-3.65-3.03-9.38,0-6.11,.8-8.62,3.27-10.09,2.08-1.23,5.26-1.85,9.71-1.85,2.94,0,5.26,.28,6.92,.9,1.52,.57,2.27,1.28,3.6,3.46v-13.31h8.15v31.59h-7.86v-4.83Zm-14.12-10.75c-1.04,.85-1.42,2.08-1.42,4.69,0,4.69,.95,5.35,7.48,5.35,3.7,0,5.73-.28,6.58-.95,.95-.76,1.33-2.04,1.33-4.45,0-5.02-.9-5.64-8.05-5.64-3.79,0-5.02,.19-5.92,.99Z"/><path class="cls-1" d="M218.73,218.21c.05,1.94,1.33,2.32,7.44,2.32,4.83,0,6.39-.52,6.39-2.04,0-1.09-.71-1.66-2.37-1.75-.81-.09-1.94-.09-4.22-.09h-4.07c-8.86,0-11.56-1.56-11.56-6.77,0-3.55,1.42-5.78,4.17-6.58,2.18-.62,5.73-.9,10.94-.9,6.96,0,9.76,.33,11.75,1.42,1.7,.9,2.41,2.37,2.56,5.21h-8.57c-.19-1.28-1.23-1.56-5.68-1.56-5.07,0-6.73,.47-6.73,1.85s.99,1.66,5.35,1.66h5.73c8.67,0,11.04,1.52,11.04,6.96,0,3.7-1.37,5.78-4.4,6.68-2.23,.66-5.92,.95-12.13,.95-6.87,0-9.14-.28-11.23-1.37-2.04-1.04-2.98-2.94-3.03-5.97h8.62Z"/></g><g><g><path class="cls-1" d="M735.1,173.11h-2.95c-16.5,23.65-35.47,34.48-69.46,34.48-37.44,0-58.62-13.3-58.62-40.89,0-24.88,16.75-36.95,53.69-36.95h77.34c-.25-23.89-9.85-31.53-45.81-31.53-30.05,0-53.45,5.42-78.57,13.55v-25.37c15.76-5.17,50.99-12.81,80.79-12.81,54.43,0,75.86,19.46,75.86,61.58v69.46h-29.8l-2.46-31.53Zm-62.81,10.59c46.8,0,62.31-19.46,62.81-36.45h-65.02c-24.88,0-33.74,4.68-33.74,17.49s10.84,18.97,35.96,18.97Z"/><path class="cls-1" d="M835.84,160.06v-58.38h-40.64v-25.12h28.08c13.55,0,16.5-2.22,18.72-19.7l3.45-28.33h22.66v48.03h83v25.12h-83v52.96c0,21.92,3.45,26.11,29.8,26.11h53.2v22.41c-20.69,1.97-37.44,2.95-62.07,2.95-40.4,0-53.2-12.56-53.2-46.06Z"/><path class="cls-1" d="M1113.07,173.11h-2.95c-16.5,23.65-35.47,34.48-69.46,34.48-37.44,0-58.62-13.3-58.62-40.89,0-24.88,16.75-36.95,53.69-36.95h77.34c-.25-23.89-9.85-31.53-45.81-31.53-30.05,0-53.45,5.42-78.57,13.55v-25.37c15.76-5.17,50.99-12.81,80.79-12.81,54.43,0,75.86,19.46,75.86,61.58v69.46h-29.8l-2.46-31.53Zm-62.81,10.59c46.8,0,62.31-19.46,62.81-36.45h-65.02c-24.88,0-33.74,4.68-33.74,17.49s10.84,18.97,35.96,18.97Z"/><path class="cls-1" d="M1290.17,200.7v-25.37c14.53,3.45,39.16,7.64,71.92,7.64s46.06-6.16,46.06-18.23c0-10.84-8.13-13.05-33.25-15.02l-39.41-3.2c-34.73-2.46-48.77-12.81-48.77-33.25,0-27.34,26.11-39.66,76.35-39.66,28.08,0,55.42,3.45,71.43,6.9v25.37c-18.47-4.43-43.35-7.64-70.44-7.64-33,0-45.81,3.2-45.81,15.76,0,10.84,8.62,13.79,29.06,15.52l39.16,3.2c39.9,2.96,53.2,12.07,53.2,32.76,0,27.59-23.89,42.12-80.54,42.12-29.06,0-54.43-3.45-68.96-6.9Z"/><path class="cls-1" d="M1604.81,173.11h-2.95c-16.5,23.65-35.47,34.48-69.46,34.48-37.44,0-58.62-13.3-58.62-40.89,0-24.88,16.75-36.95,53.69-36.95h77.34c-.25-23.89-9.85-31.53-45.81-31.53-30.05,0-53.45,5.42-78.57,13.55v-25.37c15.76-5.17,50.99-12.81,80.79-12.81,54.43,0,75.86,19.46,75.86,61.58v69.46h-29.8l-2.46-31.53Zm-62.81,10.59c46.8,0,62.31-19.46,62.81-36.45h-65.02c-24.88,0-33.74,4.68-33.74,17.49s10.84,18.97,35.96,18.97Z"/><path class="cls-1" d="M1887.45,179.51h45.81V101.68h-45.81v-25.12h73.97v102.96h43.35v25.12h-117.32v-25.12Zm19.7-162.07h53.78v24.14h-53.78V17.44Z"/><path class="cls-1" d="M2025.13,141.34c0-45.32,31.53-67.73,87.93-67.73s80.79,20.2,80.79,60.35v14.53h-138.67c3.7,26.36,26.85,34.73,69.46,34.73,26.6,0,48.77-5.17,64.78-9.36v24.63c-19.21,5.42-43.35,9.11-70.69,9.11-60.34,0-93.6-21.43-93.6-66.26Zm139.9-10.35c-.49-22.17-19.46-34.24-51.72-34.24s-53.45,12.07-57.64,34.24h109.36Z"/><path class="cls-1" d="M548.8,204.64l14.15-14.15V17.44h-15.16l-17.11,17.11V111.29c-11.08-24.88-35.22-37.69-67.98-37.69-43.84,0-76.85,22.91-76.85,67.49s30.29,66.5,74.14,66.5c29.56,0,51.23-10.59,67.98-34.97h2.71v32.02h18.11Zm-75.5-21.43c-35.96,0-54.93-15.27-54.93-42.61s18.97-42.61,56.16-42.61,56.16,15.52,56.16,41.63-19.95,43.6-57.39,43.6Z"/><path class="cls-1" d="M1783.77,73.6c-29.56,0-51.23,10.59-67.98,34.98h-2.71v-32.02h-15.16l-17.11,17.11v163.52h15.16l17.11-17.11v-70.17c11.08,24.88,35.22,37.68,67.98,37.68,43.84,0,76.85-22.91,76.85-67.49s-30.29-66.5-74.14-66.5Zm-14.53,109.61c-37.44,0-56.16-15.52-56.16-41.63s19.95-43.6,57.39-43.6,54.93,15.27,54.93,42.61-18.97,42.61-56.16,42.61Z"/><path class="cls-1" d="M2333.4,73.6c-33.5,0-54.43,16.5-66.75,34.98h-3.2v-32.02h-15.16l-17.11,17.11v110.97h32.27v-55.42c0-38.18,25.62-50.74,54.19-50.74s41.13,10.1,41.13,37.69v68.47h32.27v-73.4c0-41.63-19.7-57.64-57.64-57.64Z"/></g><path class="cls-1" d="M2425.22,140.54c0-45.79,33.48-66.96,92.08-66.96,23.39,0,46.04,3.45,60.32,7.88l.98,25.6c-14.53-3.69-32.01-8.12-56.38-8.12-41.36,0-64.75,11.33-64.75,41.61s24.13,41.85,64.5,41.85c24.87,0,42.1-4.43,56.62-8.62l-.98,25.11c-13.79,4.92-36.19,8.62-60.81,8.62-58.1,0-91.58-21.17-91.58-66.96Z"/><path class="cls-1" d="M2604.65,141.28c0-45.3,31.51-67.7,87.89-67.7s80.75,20.19,80.75,60.32v14.53h-138.61c3.69,26.34,26.83,34.71,69.43,34.71,26.59,0,48.75-5.17,64.75-9.36v24.62c-19.2,5.42-43.33,9.11-70.66,9.11-60.32,0-93.55-21.42-93.55-66.23Zm139.84-10.34c-.49-22.16-19.45-34.22-51.7-34.22s-53.42,12.06-57.61,34.22h109.31Z"/></g></svg>