<?xml version="1.0" encoding="UTF-8"?><svg id="Layer_1" xmlns="http://www.w3.org/2000/svg" viewBox="0 0 860.8 805.98"><defs><style>.cls-1{fill:#0a0b09;}</style></defs><path class="cls-1" d="M131.64,796.75L858.59,489.36v-184.39L131.64,0,0,129.12V667.62l131.64,129.12Zm24.42-619.09l518.53,219.68L156.06,617.02V177.66Z"/><g><path class="cls-1" d="M705.12,786.86c-2.87,8.29-5.24,11.51-10.83,14.55-5.58,3.22-13.03,4.57-25.05,4.57-17.94,0-31.65-2.37-38.25-6.6-8.47-5.42-10.83-13.04-10.83-33.52,0-21.83,2.87-30.81,11.68-36.05,7.44-4.4,18.79-6.6,34.7-6.6,10.49,0,18.79,1.01,24.71,3.22,5.42,2.03,8.13,4.57,12.86,12.35v-47.56h29.11v112.9h-28.1v-17.26Zm-50.44-38.43c-3.72,3.05-5.08,7.45-5.08,16.76,0,16.76,3.38,19.12,26.74,19.12,13.2,0,20.48-1.01,23.53-3.38,3.38-2.71,4.74-7.28,4.74-15.91,0-17.94-3.21-20.14-28.77-20.14-13.54,0-17.94,.67-21.16,3.55Z"/><path class="cls-1" d="M781.58,779.75c.17,6.94,4.74,8.29,26.58,8.29,17.26,0,22.85-1.86,22.85-7.28,0-3.89-2.54-5.92-8.46-6.26-2.88-.34-6.94-.34-15.07-.34h-14.56c-31.65,0-41.3-5.58-41.3-24.2,0-12.69,5.08-20.65,14.9-23.53,7.79-2.2,20.48-3.22,39.1-3.22,24.88,0,34.87,1.19,41.98,5.08,6.09,3.22,8.63,8.46,9.14,18.62h-30.64c-.68-4.57-4.4-5.59-20.31-5.59-18.11,0-24.03,1.69-24.03,6.6s3.55,5.92,19.13,5.92h20.48c30.97,0,39.44,5.42,39.44,24.88,0,13.2-4.91,20.65-15.74,23.87-7.96,2.37-21.16,3.38-43.33,3.38-24.54,0-32.67-1.01-40.12-4.91-7.28-3.72-10.66-10.5-10.83-21.33h30.81Z"/></g></svg>