<?xml version="1.0" encoding="UTF-8"?><svg id="Layer_1" xmlns="http://www.w3.org/2000/svg" viewBox="0 0 2387.44 239.74"><defs><style>.cls-1{fill:#0a0b09;}</style></defs><g><path class="cls-1" d="M349.24,155.67h-2.95c-16.5,23.65-35.47,34.48-69.46,34.48-37.44,0-58.62-13.3-58.62-40.89,0-24.88,16.75-36.95,53.69-36.95h77.34c-.25-23.89-9.85-31.53-45.81-31.53-30.05,0-53.45,5.42-78.57,13.55v-25.37c15.76-5.17,50.99-12.81,80.79-12.81,54.43,0,75.86,19.46,75.86,61.58v69.46h-29.8l-2.46-31.53Zm-62.81,10.59c46.8,0,62.31-19.46,62.81-36.45h-65.02c-24.88,0-33.74,4.68-33.74,17.49s10.84,18.97,35.96,18.97Z"/><path class="cls-1" d="M449.99,142.61v-58.38h-40.64v-25.12h28.08c13.55,0,16.5-2.22,18.72-19.7l3.45-28.33h22.66V59.11h83v25.12h-83v52.96c0,21.92,3.45,26.11,29.8,26.11h53.2v22.41c-20.69,1.97-37.44,2.95-62.07,2.95-40.4,0-53.2-12.56-53.2-46.06Z"/><path class="cls-1" d="M727.21,155.67h-2.95c-16.5,23.65-35.47,34.48-69.46,34.48-37.44,0-58.62-13.3-58.62-40.89,0-24.88,16.75-36.95,53.69-36.95h77.34c-.25-23.89-9.85-31.53-45.81-31.53-30.05,0-53.45,5.42-78.57,13.55v-25.37c15.76-5.17,50.99-12.81,80.79-12.81,54.43,0,75.86,19.46,75.86,61.58v69.46h-29.8l-2.46-31.53Zm-62.81,10.59c46.8,0,62.31-19.46,62.81-36.45h-65.02c-24.88,0-33.74,4.68-33.74,17.49s10.84,18.97,35.96,18.97Z"/><path class="cls-1" d="M904.31,183.25v-25.37c14.53,3.45,39.16,7.64,71.92,7.64s46.06-6.16,46.06-18.23c0-10.84-8.13-13.05-33.25-15.02l-39.41-3.2c-34.73-2.46-48.77-12.81-48.77-33.25,0-27.34,26.11-39.66,76.35-39.66,28.08,0,55.42,3.45,71.43,6.9v25.37c-18.47-4.43-43.35-7.64-70.44-7.64-33,0-45.81,3.2-45.81,15.76,0,10.84,8.62,13.79,29.06,15.52l39.16,3.2c39.9,2.96,53.2,12.07,53.2,32.76,0,27.59-23.89,42.12-80.54,42.12-29.06,0-54.43-3.45-68.96-6.9Z"/><path class="cls-1" d="M1218.95,155.67h-2.95c-16.5,23.65-35.47,34.48-69.46,34.48-37.44,0-58.62-13.3-58.62-40.89,0-24.88,16.75-36.95,53.69-36.95h77.34c-.25-23.89-9.85-31.53-45.81-31.53-30.05,0-53.45,5.42-78.57,13.55v-25.37c15.76-5.17,50.99-12.81,80.79-12.81,54.43,0,75.86,19.46,75.86,61.58v69.46h-29.8l-2.46-31.53Zm-62.81,10.59c46.8,0,62.31-19.46,62.81-36.45h-65.02c-24.88,0-33.74,4.68-33.74,17.49s10.84,18.97,35.96,18.97Z"/><path class="cls-1" d="M1501.59,162.07h45.81V84.24h-45.81v-25.12h73.97v102.96h43.35v25.12h-117.32v-25.12ZM1521.3,0h53.78V24.14h-53.78V0Z"/><path class="cls-1" d="M1639.28,123.89c0-45.32,31.53-67.73,87.93-67.73s80.79,20.2,80.79,60.35v14.53h-138.67c3.7,26.36,26.85,34.73,69.46,34.73,26.6,0,48.77-5.17,64.78-9.36v24.63c-19.21,5.42-43.35,9.11-70.69,9.11-60.34,0-93.6-21.43-93.6-66.26Zm139.9-10.35c-.49-22.17-19.46-34.24-51.72-34.24s-53.45,12.07-57.64,34.24h109.36Z"/><path class="cls-1" d="M162.94,187.19l14.15-14.15V0h-15.16l-17.11,17.11V93.84c-11.08-24.88-35.22-37.69-67.98-37.69C33,56.16,0,79.06,0,123.65s30.29,66.5,74.14,66.5c29.56,0,51.23-10.59,67.98-34.97h2.71v32.02h18.11Zm-75.5-21.43c-35.96,0-54.93-15.27-54.93-42.61s18.97-42.61,56.16-42.61,56.16,15.52,56.16,41.63-19.95,43.6-57.39,43.6Z"/><path class="cls-1" d="M1397.91,56.16c-29.56,0-51.23,10.59-67.98,34.98h-2.71V59.11h-15.16l-17.11,17.11V239.74h15.16l17.11-17.11v-70.17c11.08,24.88,35.22,37.68,67.98,37.68,43.84,0,76.85-22.91,76.85-67.49s-30.29-66.5-74.14-66.5Zm-14.53,109.61c-37.44,0-56.16-15.52-56.16-41.63s19.95-43.6,57.39-43.6,54.93,15.27,54.93,42.61-18.97,42.61-56.16,42.61Z"/><path class="cls-1" d="M1947.55,56.16c-33.5,0-54.43,16.5-66.75,34.98h-3.2V59.11h-15.16l-17.11,17.11v110.97h32.27v-55.42c0-38.18,25.62-50.74,54.19-50.74s41.13,10.1,41.13,37.69v68.47h32.27V113.79c0-41.63-19.7-57.64-57.64-57.64Z"/></g><path class="cls-1" d="M2039.36,123.1c0-45.79,33.48-66.96,92.08-66.96,23.39,0,46.04,3.45,60.32,7.88l.98,25.6c-14.53-3.69-32.01-8.12-56.38-8.12-41.36,0-64.75,11.33-64.75,41.61s24.13,41.85,64.5,41.85c24.87,0,42.1-4.43,56.62-8.62l-.98,25.11c-13.79,4.92-36.19,8.62-60.81,8.62-58.1,0-91.58-21.17-91.58-66.96Z"/><path class="cls-1" d="M2218.8,123.84c0-45.3,31.51-67.7,87.89-67.7s80.75,20.19,80.75,60.32v14.53h-138.61c3.69,26.34,26.83,34.71,69.43,34.71,26.59,0,48.75-5.17,64.75-9.36v24.62c-19.2,5.42-43.33,9.11-70.66,9.11-60.32,0-93.55-21.42-93.55-66.23Zm139.84-10.34c-.49-22.16-19.45-34.22-51.7-34.22s-53.42,12.06-57.61,34.22h109.31Z"/></svg>